<?xml version="1.0" standalone="no"?>
<!DOCTYPE svg PUBLIC "-//W3C//DTD SVG 20010904//EN"
 "http://www.w3.org/TR/2001/REC-SVG-20010904/DTD/svg10.dtd">
<svg version="1.0" xmlns="http://www.w3.org/2000/svg"
 width="1000.000000pt" height="1000.000000pt" viewBox="0 0 1000.000000 1000.000000"
 preserveAspectRatio="xMidYMid meet">

<g transform="translate(0.000000,1000.000000) scale(0.100000,-0.100000)"
fill="#000000" stroke="none">
<path d="M490 4990 l0 -4630 4215 0 4215 0 -19 48 c-10 26 -179 478 -376 1005
l-358 957 131 133 c325 330 567 671 774 1093 404 822 526 1756 347 2659 -238
1198 -980 2222 -2049 2827 -468 265 -1009 442 -1555 507 -231 28 -459 31
-2847 31 l-2478 0 0 -4630z m5305 4202 c273 -39 469 -84 698 -158 1326 -433
2316 -1576 2551 -2944 45 -259 51 -341 51 -655 0 -329 -12 -453 -66 -732 -160
-820 -598 -1575 -1239 -2133 -47 -40 -86 -77 -88 -80 -1 -4 141 -393 318 -865
176 -472 320 -859 320 -861 0 -2 -1676 -4 -3725 -4 l-3725 0 0 4230 0 4231
2378 -4 2377 -3 150 -22z"/>
</g>
</svg>
