<?xml version="1.0" encoding="utf-8"?>
<!-- Generator: Adobe Illustrator 18.0.0, SVG Export Plug-In . SVG Version: 6.00 Build 0)  -->
<!DOCTYPE svg PUBLIC "-//W3C//DTD SVG 1.1//EN" "http://www.w3.org/Graphics/SVG/1.1/DTD/svg11.dtd">
<svg version="1.1" xmlns="http://www.w3.org/2000/svg" xmlns:xlink="http://www.w3.org/1999/xlink" x="0px" y="0px"
	 viewBox="0 0 1000 1000" enable-background="new 0 0 1000 1000" xml:space="preserve">
<g id="Layer_1">
	<rect x="-8.7" y="1289.5" fill="#FFFFFF" width="1023.5" height="1043.9"/>
	<rect x="-75.8" y="-730.4" fill="#FFFFFF" width="1247.6" height="443.3"/>
	<rect x="110.6" y="-607.7" fill="#D75F5E" width="223" height="223"/>
	<rect x="499.1" y="-607.7" fill="#00F1DF" width="223" height="223"/>
	<rect x="887.6" y="-607.7" fill="#333333" width="223" height="223"/>
	<path fill="none" d="M1000,1000"/>
	<g>
		<rect x="5339.3" y="1243.1" fill="#333333" width="1023.5" height="1043.9"/>
		<path fill="#FFFFFF" d="M5883.4,1321.9c220.2,0,398.8,178.5,398.8,398.8s-178.5,398.8-398.8,398.8"/>
		<polygon fill="#FFFFFF" points="5421.9,2208.1 6215.1,2208.1 5883.7,1321.9 5421.9,1321.9 		"/>
	</g>
	<path fill="#333333" d="M3075.4,1321.9c220.2,0,398.8,178.5,398.8,398.8s-178.5,398.8-398.8,398.8"/>
	<polygon fill="#333333" points="2613.9,2208.1 3407.1,2208.1 3075.7,1321.9 2613.9,1321.9 	"/>
	<path fill="none" stroke="#333333" stroke-width="50" stroke-miterlimit="10" d="M930.6,455.7C930.6,235.6,752,58.2,532,58l0,0H70
		v886h793.7l-69.9-187.2C877.7,683.7,930.6,575.7,930.6,455.7z"/>
	<path fill="none" d="M1000,2312"/>
	<path fill="none" stroke="#000000" stroke-width="50" stroke-miterlimit="10" d="M930.6,1767.7c0-220.1-178.6-397.5-398.6-397.7
		l0,0H70v886h793.7l-69.9-187.2C877.7,1995.7,930.6,1887.7,930.6,1767.7z"/>
	<rect x="1263" y="1243" fill="#333333" width="1023.5" height="1043.9"/>
	<path fill="#FFFFFF" stroke="#333333" stroke-width="50" stroke-miterlimit="10" d="M1803.4,1308.9
		c220.2,0,398.8,178.5,398.8,398.8s-178.5,398.8-398.8,398.8"/>
	<polygon fill="#FFFFFF" stroke="#333333" stroke-width="50" stroke-miterlimit="10" points="1341.9,2195.1 2135.1,2195.1 
		1803.7,1308.9 1341.9,1308.9 	"/>
	<text transform="matrix(1 0 0 1 38 1243.0389)" font-family="'Verdana'" font-size="60">FAVICON</text>
</g>
<g id="Layer_2">
</g>
<g id="Layer_3">
</g>
<g id="Layer_4">
</g>
</svg>
