<?xml version="1.0" standalone="no"?>
<!DOCTYPE svg PUBLIC "-//W3C//DTD SVG 20010904//EN"
 "http://www.w3.org/TR/2001/REC-SVG-20010904/DTD/svg10.dtd">
<svg version="1.0" xmlns="http://www.w3.org/2000/svg"
 width="1000.000000pt" height="1000.000000pt" viewBox="0 0 1000.000000 1000.000000"
 preserveAspectRatio="xMidYMid meet">

<g transform="translate(0.000000,1000.000000) scale(0.100000,-0.100000)"
fill="#000000" stroke="none">
<path d="M450 4990 l0 -4680 4275 0 4274 0 -22 58 c-12 31 -184 491 -382 1022
l-361 965 117 123 c65 67 160 173 212 235 1008 1198 1273 2871 682 4322 -222
546 -538 1013 -972 1436 -718 698 -1633 1109 -2647 1189 -82 6 -1046 10 -2652
10 l-2524 0 0 -4680z m5285 4158 c494 -66 860 -175 1257 -374 357 -179 647
-386 937 -669 611 -597 976 -1324 1097 -2185 25 -182 30 -645 9 -850 -98 -961
-542 -1819 -1270 -2456 -116 -102 -122 -109 -113 -133 58 -151 618 -1656 618
-1662 0 -5 -1561 -9 -3660 -9 l-3660 0 0 4180 0 4181 2333 -4 c2070 -3 2345
-5 2452 -19z"/>
</g>
</svg>
